<svg id="Capa_1" enable-background="new 0 0 512 512" height="512" viewBox="0 0 512 512" width="512" xmlns="http://www.w3.org/2000/svg"><g><g><path d="m241 0h30v124h-30z" fill="#5a5a5a"/></g><g><path d="m256 0h15v124h-15z" fill="#2d2d2d"/></g><path d="m211.847 283.1c-11.828 11.505-19.176 27.592-19.176 45.396 0 35.128 28.6 63.575 63.786 63.327 33.924-.239 61.858-27.527 62.845-61.438.539-18.528-6.883-35.329-19.098-47.236z" fill="#fff36c"/><path d="m256.457 391.823c33.924-.239 61.858-27.527 62.845-61.438.539-18.528-6.883-35.329-19.098-47.236l-44.204-.049z" fill="#ffb655"/><g><g><path d="m150.492 451.351h65.941v30h-65.941z" fill="#fff36c" transform="matrix(.646 -.763 .763 .646 -290.95 304.873)"/></g></g><g><g><path d="m241 441.195h30v70.805h-30z" fill="#fff36c"/></g></g><g><path d="m256 441.195h15v70.805h-15z" fill="#ffb655"/></g><g><g><path d="m313.537 433.381h30v65.941h-30z" fill="#ffb655" transform="matrix(.763 -.646 .646 .763 -223.589 322.905)"/></g></g><path d="m512 293.174-203.719-131.943-52.281-10-52.281 10-203.719 131.943z" fill="#0b799d"/><path d="m512 293.174-203.719-131.943-52.281-10v141.943z" fill="#07485e"/><path d="m308.281 161.231v-7.719c0-28.874-23.407-52.281-52.281-52.281-28.874 0-52.281 23.407-52.281 52.281v7.719z" fill="#07485e"/><path d="m308.281 161.231v-7.719c0-28.874-23.407-52.281-52.281-52.281v60z" fill="#03232e"/></g></svg>