<svg height="511pt" viewBox="-17 0 511 511.99958" width="511pt" xmlns="http://www.w3.org/2000/svg"><g fill-rule="evenodd"><path d="m85.316406 271.953125v154.277344l18.785156 11.242187 18.785157-11.242187v-154.277344c-5.949219 1.871094-13.214844 2.863281-18.785157 2.863281-5.570312 0-9.128906-.496094-13.445312-1.429687-1.808594-.410157-3.589844-.878907-5.339844-1.433594zm0 0" fill="#e6e6e6"/><path d="m71.550781 435.3125v18.601562l32.550781 17.816407 32.519532-17.816407v-18.601562c0-4.992188-4.082032-9.082031-9.070313-9.082031h-46.902343c-5.015626 0-9.097657 4.089843-9.097657 9.082031zm0 0" fill="#eb5757"/><path d="m.5 482.972656v18.484375c0 5.78125 4.695312 10.511719 10.441406 10.542969h185.269532c5.773437-.03125 10.472656-4.761719 10.472656-10.542969v-18.484375c0-15.972656-13.070313-29.058594-29.023438-29.058594h-148.167968c-15.953126 0-28.992188 13.085938-28.992188 29.058594zm0 0" fill="#616d80"/><path d="m102.496094 426.230469v-140.726563c-4.054688-.117187-8.019532-.582031-11.839844-1.429687-1.808594-.410157-3.589844-.875-5.339844-1.433594v143.589844h12.425782.085937zm0 0" fill="#b3b3b3"/><path d="m88.761719 453.914062v-18.601562c0-2.1875.785156-4.203125 2.070312-5.78125 1.660157-1.984375 4.140625-3.269531 6.910157-3.300781h-17.089844c-5.015625 0-9.101563 4.089843-9.101563 9.082031v18.601562zm0 0" fill="#bf3961"/><path d="m17.679688 482.972656c0-15.972656 13.035156-29.058594 28.992187-29.058594h-17.179687c-15.953126 0-28.992188 13.085938-28.992188 29.058594v18.484375c0 5.78125 4.695312 10.511719 10.441406 10.542969h17.179688c-5.746094-.03125-10.441406-4.761719-10.441406-10.542969zm0 0" fill="#3f4c63"/><path d="m406.972656 227.128906c11.023438-7.15625 18.257813-17.929687 21.175782-29.789062 3.207031-12.875 1.253906-26.980469-6.503907-39.011719l-64.871093-5.519531-18.519532 59.71875c1.984375 3.066406 4.257813 5.839844 6.765625 8.320312 13.738281 13.582032 34.300781 17.960938 52.386719 11.128906 3.296875-1.226562 6.503906-2.832031 9.566406-4.847656zm0 0" fill="#edcf56"/><path d="m152.984375 201.109375 114.21875-72.949219 1.167969-28.148437-21.789063-3.273438-119.613281 76.367188c11.316406 6.394531 20.445312 16.175781 26.015625 28.003906zm0 0" fill="#e6e6e6"/><path d="m379.90625 185.398438 41.738281-27.070313 20.96875-13.609375c18.929688-13.460938 52.996094-25.960938 23.042969-53.058594-17.792969-16.121094-39.550781-26.574218-62.476562-30.75-7.351563-1.34375-14.789063-2.015625-22.285157-2.074218l-28.496093-43.921876c-9.796876-15.125-30.1875-19.476562-45.292969-9.664062l-56.878907 36.96875c-15.109374 9.8125-19.511718 30.28125-9.652343 45.351562l6.007812 9.171876 20.621094 31.421874c-4.519531 8.875-7.964844 18.191407-10.324219 27.800782-5.515625 22.660156-4.84375 46.8125 2.59375 69.648437 12.542969 38.457031 37.800782 12.378907 57.808594.554688l20.972656-13.640625zm0 0" fill="#eb5757"/><path d="m41.449219 222.804688c0 4.644531.527343 9.171874 1.488281 13.523437 4.8125 21.988281 21.175781 39.65625 42.382812 46.3125 1.75.558594 3.527344 1.023437 5.335938 1.433594 4.316406.933593 8.839844 1.460937 13.445312 1.460937 6.535157 0 12.835938-1.023437 18.785157-2.894531 9.070312-2.832031 17.238281-7.707031 24.003906-14.042969 12.222656-11.449218 19.835937-27.714844 19.835937-45.792968 0-6.859376-1.109374-13.460938-3.152343-19.652344-.785157-2.421875-1.71875-4.757813-2.796875-7.035156-5.542969-11.828126-14.671875-21.613282-25.988282-27.976563-2.363281-1.34375-4.8125-2.511719-7.351562-3.535156-7.203125-2.917969-15.078125-4.496094-23.332031-4.496094-16.625 0-31.734375 6.480469-42.964844 17.054687-12.105469 11.445313-19.691406 27.65625-19.691406 45.640626zm0 0" fill="#616d80"/><path d="m85.902344 203.472656c-5.132813 4.851563-8.34375 11.710938-8.34375 19.332032 0 1.957031.203125 3.886718.613281 5.726562 2.21875 10.101562 10.148437 18.046875 20.214844 20.234375 1.835937.410156 3.761719.613281 5.714843.613281 7 0 13.386719-2.714844 18.140626-7.152344 5.164062-4.878906 8.402343-11.769531 8.402343-19.421874 0-2.917969-.46875-5.722657-1.34375-8.320313-2.449219-7.449219-8.078125-13.433594-15.3125-16.355469-3.0625-1.226562-6.386719-1.898437-9.886719-1.898437-7.058593.003906-13.445312 2.746093-18.199218 7.242187zm0 0" fill="#e6e6e6"/><path d="m85.316406 274.144531c-12.597656-8.847656-21.785156-22.253906-25.199218-37.816406-.960938-4.351563-1.457032-8.878906-1.457032-13.523437 0-17.988282 7.554688-34.195313 19.660156-45.640626 9.246094-8.734374 21.144532-14.660156 34.359376-16.472656-2.800782-.378906-5.660157-.582031-8.578126-.582031-16.625 0-31.734374 6.480469-42.960937 17.054687-12.105469 11.445313-19.6875 27.652344-19.6875 45.640626 0 4.644531.523437 9.171874 1.488281 13.523437 4.8125 21.988281 21.171875 39.65625 42.378906 46.3125 1.75.558594 3.527344 1.023437 5.335938 1.433594 3.824219.847656 7.789062 1.3125 11.84375 1.429687v-2.863281c-6.1875-1.953125-11.988281-4.816406-17.183594-8.496094zm0 0" fill="#3f4c63"/><path d="m96.082031 228.53125c-.410156-1.839844-.613281-3.769531-.613281-5.726562 0-7.621094 3.207031-14.511719 8.339844-19.359376 2.625-2.480468 5.746094-4.410156 9.21875-5.664062-2.773438-.992188-5.804688-1.546875-8.925782-1.546875-7.058593 0-13.445312 2.742187-18.199218 7.238281-5.132813 4.851563-8.34375 11.710938-8.34375 19.332032 0 1.957031.207031 3.886718.613281 5.726562 2.21875 10.101562 10.152344 18.046875 20.214844 20.234375 1.835937.410156 3.761719.613281 5.714843.613281 3.152344 0 6.15625-.523437 8.984376-1.546875-8.519532-3.035156-15.023438-10.335937-17.003907-19.300781zm0 0" fill="#b3b3b3"/><path d="m171.300781 189.398438c-5.539062-11.824219-14.671875-21.609376-26.015625-28.003907l-10.5 6.746094c11.316406 6.367187 20.445313 16.148437 25.988282 27.976563zm0 0" fill="#b3b3b3"/><path d="m281.875 102.433594-13.125-20.03125-6.007812-9.171875c-9.886719-15.066407-5.453126-35.507813 9.652343-45.351563l36.402344-23.652344c-.554687.320313-1.136719.671876-1.691406 1.019532l-56.875 36.972656c-15.109375 9.8125-19.515625 30.28125-9.65625 45.351562l6.007812 9.167969 20.621094 31.421875c-4.519531 8.878906-7.960937 18.195313-10.324219 27.800782-5.511718 22.664062-4.84375 46.8125 2.597656 69.648437 12.539063 38.460937 37.800782 12.382813 57.808594.554687l.640625-.4375c-14.175781 8.207032-28 10.921876-36.285156-14.453124-7.4375-22.835938-8.105469-46.957032-2.59375-69.621094.699219-2.859375 1.488281-5.695313 2.390625-8.496094 2.566406-8.121094 11.460938-13.902344.4375-30.722656zm0 0" fill="#bf3961"/><path d="m345.023438 220.851562c13.738281 13.578126 34.300781 17.960938 52.382812 11.125 3.296875-1.226562 6.503906-2.832031 9.566406-4.847656 3.617188-2.335937 6.824219-5.082031 9.597656-8.117187-17.648437 5.957031-37.394531 1.429687-50.722656-11.738281-2.507812-2.453126-4.785156-5.257813-6.769531-8.324219l-20.824219 13.578125c1.984375 3.066406 4.257813 5.839844 6.769532 8.324218zm0 0" fill="#db993d"/></g></svg>