<svg height="512pt" viewBox="0 0 512 512" width="512pt" xmlns="http://www.w3.org/2000/svg"><path d="m512 256c0 141.386719-114.613281 256-256 256s-256-114.613281-256-256 114.613281-256 256-256 256 114.613281 256 256zm0 0" fill="#4a7aff"/><path d="m271.894531 511.492188c131.71875-8.070313 236.511719-115.722657 240.011719-248.628907l-156.789062-179.410156-122.992188-23.453125-36.9375 18.875-20.683594 22.195312 98.503906 98.503907-154.507812 149.078125 74.234375 74.234375-4.601563 4.84375zm0 0" fill="#0053bf"/><path d="m285.289062 443.253906h-58.578124c-30.765626 0-55.707032-24.941406-55.707032-55.707031v-86.582031c0-30.769532 24.941406-55.710938 55.707032-55.710938h58.578124c30.765626 0 55.707032 24.941406 55.707032 55.710938v86.582031c0 30.765625-24.941406 55.707031-55.707032 55.707031zm0 0" fill="#ffe000"/><path d="m285.289062 245.253906h-29.480468v198h29.480468c30.765626 0 55.707032-24.941406 55.707032-55.707031v-86.582031c0-30.769532-24.941406-55.710938-55.707032-55.710938zm0 0" fill="#ffc200"/><path d="m393.5 348.652344h-275l49.652344-206.792969h175.695312zm0 0" fill="#fff"/><path d="m343.847656 141.859375h-88.039062v206.792969h137.691406zm0 0" fill="#e9edf5"/><path d="m333.902344 104.664062c-42.957032-42.953124-112.847656-42.953124-155.804688 0l-21.214844-21.210937c54.652344-54.652344 143.582032-54.652344 198.230469 0zm0 0" fill="#53edf5"/><path d="m303.472656 135.097656c-26.175781-26.175781-68.769531-26.175781-94.945312 0l-21.210938-21.214844c37.871094-37.871093 99.496094-37.871093 137.367188 0zm0 0" fill="#53edf5"/><g fill="#40deed"><path d="m256 42.464844v29.984375c28.210938 0 56.425781 10.738281 77.902344 32.214843l21.214844-21.210937c-27.328126-27.328125-63.222657-40.988281-99.117188-40.988281zm0 0"/><path d="m256 85.476562v29.988282c17.191406 0 34.382812 6.542968 47.472656 19.632812l21.210938-21.214844c-18.933594-18.9375-43.808594-28.40625-68.683594-28.40625zm0 0"/></g></svg>