<svg height="512pt" viewBox="0 0 512 512" width="512pt" xmlns="http://www.w3.org/2000/svg"><path d="m512 256c0 141.386719-114.613281 256-256 256s-256-114.613281-256-256 114.613281-256 256-256 256 114.613281 256 256zm0 0" fill="#4a7aff"/><path d="m285.167969 510.335938c127.648437-14.480469 226.832031-122.816407 226.832031-254.335938 0-6.847656-.277344-13.628906-.804688-20.34375l-105.414062-105.410156-189.71875-53.246094-67.230469 32.792969-21.472656 41.589843 134.59375 134.597657-39.007813 162.132812zm0 0" fill="#0053bf"/><path d="m342.027344 194c-22.976563-22.980469-53.53125-35.636719-86.027344-35.636719s-63.050781 12.65625-86.027344 35.636719l-21.140625-21.140625c28.625-28.625 66.683594-44.390625 107.167969-44.390625s78.542969 15.761719 107.171875 44.390625zm0 0" fill="#53edf5"/><path d="m256 128.46875c-.0625 0-.128906 0-.191406 0v29.898438c.0625 0 .128906-.003907.191406-.003907 32.496094 0 63.050781 12.65625 86.027344 35.636719l21.140625-21.140625c-28.625-28.628906-66.683594-44.390625-107.167969-44.390625zm0 0" fill="#42cbea"/><path d="m384.644531 151.386719c-34.363281-34.363281-80.050781-53.289063-128.644531-53.289063-48.597656 0-94.28125 18.925782-128.644531 53.285156l-21.140625-21.140624c40.007812-40.003907 93.207031-62.042969 149.78125-62.042969h.003906c56.578125 0 109.773438 22.035156 149.78125 62.046875zm0 0" fill="#53edf5"/><path d="m256 68.199219c-.003906 0 .003906 0 0 0-.066406 0-.128906.003906-.191406.003906v29.898437c.0625 0 .125-.003906.191406-.003906 48.59375 0 94.28125 18.925782 128.644531 53.289063l21.136719-21.140625c-40.007812-40.011719-93.203125-62.042969-149.78125-62.046875zm0 0" fill="#42cbea"/><path d="m347 284.222656c0-50.691406-41.445312-91.699218-92.300781-90.992187-49.648438.695312-89.894531 41.703125-89.699219 91.363281.109375 27.335938 12.273438 51.828125 31.449219 68.4375 12.472656 10.800781 19.613281 26.5 19.613281 42.996094v37.335937h79.878906v-37.335937c0-16.472656 7.097656-32.175782 19.558594-42.953125 19.292969-16.6875 31.5-41.339844 31.5-68.851563zm0 0" fill="#fff"/><path d="m255.808594 193.230469v240.132812h40.128906v-37.335937c0-16.472656 7.101562-32.175782 19.5625-42.953125 19.292969-16.6875 31.5-41.339844 31.5-68.851563 0-50.320312-40.847656-91.09375-91.191406-90.992187zm0 0" fill="#e9edf5"/><path d="m216.0625 397.46875v33.265625c0 16.304687 16.070312 29.523437 35.890625 29.523437h8.089844c19.824219 0 35.894531-13.21875 35.894531-29.523437v-33.265625zm0 0" fill="#ffd400"/><path d="m255.808594 397.46875v62.789062h4.238281c19.820313 0 35.894531-13.21875 35.894531-29.523437v-33.265625zm0 0" fill="#fdba12"/></svg>