<svg height="512pt" viewBox="0 0 512 512" width="512pt" xmlns="http://www.w3.org/2000/svg"><path d="m512 256c0 141.386719-114.613281 256-256 256s-256-114.613281-256-256 114.613281-256 256-256 256 114.613281 256 256zm0 0" fill="#4a7aff"/><path d="m512 256c0-5.53125-.195312-11.019531-.542969-16.464844l-108.402343-108.402344-287.707032 256.898438 123.375 123.375c5.710938.382812 11.46875.59375 17.277344.59375 141.386719 0 256-114.613281 256-256zm0 0" fill="#0053bf"/><path d="m448.925781 256c0 106.550781-86.375 192.925781-192.925781 192.925781s-192.925781-86.375-192.925781-192.925781 86.375-192.925781 192.925781-192.925781 192.925781 86.375 192.925781 192.925781zm0 0" fill="#fff"/><path d="m63.078125 255.90625c0 .03125-.003906.0625-.003906.09375 0 106.550781 86.375 192.925781 192.925781 192.925781s192.925781-86.375 192.925781-192.925781c0-.03125-.003906-.0625-.003906-.09375zm0 0" fill="#e9edf5"/><path d="m256 102.5c-84.777344 0-153.5 68.722656-153.5 153.5s68.722656 153.5 153.5 153.5c.335938 0 .664062-.011719 1-.011719v-306.976562c-.335938 0-.664062-.011719-1-.011719zm0 0" fill="#ff583e"/><path d="m102.5 255.90625v.09375c0 84.777344 68.722656 153.5 153.5 153.5.335938 0 .664062-.011719 1-.011719v-153.582031zm0 0" fill="#e81d13"/><path d="m409.5 256c0-84.441406-68.1875-152.949219-152.5-153.488281v306.976562c84.3125-.539062 152.5-69.046875 152.5-153.488281zm0 0" fill="#53edf5"/><path d="m348.5 256c0 51.085938-41.414062 92.5-92.5 92.5s-92.5-41.414062-92.5-92.5 41.414062-92.5 92.5-92.5 92.5 41.414062 92.5 92.5zm0 0" fill="#555a66"/><path d="m163.5 255.90625v.09375c0 51.085938 41.414062 92.5 92.5 92.5s92.5-41.414062 92.5-92.5c0-.03125 0-.0625 0-.09375zm0 0" fill="#333940"/><path d="m219.886719 238.171875c-12.683594 0-23-10.316406-23-23 0-12.679687 10.316406-23 23-23 12.683593 0 23 10.320313 23 23 0 12.683594-10.316407 23-23 23zm0-30c-3.859375 0-7 3.140625-7 7s3.140625 7 7 7 7-3.140625 7-7-3.140625-7-7-7zm0 0" fill="#fff"/><path d="m278.828125 319.804688c-12.292969 0-24.582031-4.679688-33.941406-14.039063-18.714844-18.714844-18.714844-49.164063 0-67.878906 18.71875-18.71875 49.167969-18.71875 67.882812 0l-11.3125 11.3125c-12.476562-12.476563-32.777343-12.476563-45.253906 0-12.476563 12.476562-12.476563 32.777343 0 45.253906s32.777344 12.476563 45.253906 0l11.3125 11.3125c-9.355469 9.359375-21.652343 14.039063-33.941406 14.039063zm0 0" fill="#fff"/><path d="m256.199219 294.453125c-10.429688-10.429687-12.132813-26.324219-5.125-38.546875h-17.523438c-5.902343 16.867188-2.125 36.402344 11.335938 49.863281 9.359375 9.359375 21.648437 14.035157 33.941406 14.035157 12.289063 0 24.585937-4.679688 33.941406-14.035157l-11.3125-11.316406c-12.476562 12.476563-32.777343 12.480469-45.257812 0zm0 0" fill="#e9edf5"/></svg>