<?xml version="1.0" encoding="iso-8859-1"?>
<!-- Generator: Adobe Illustrator 19.0.0, SVG Export Plug-In . SVG Version: 6.00 Build 0)  -->
<svg version="1.1" id="Capa_1" xmlns="http://www.w3.org/2000/svg" xmlns:xlink="http://www.w3.org/1999/xlink" x="0px" y="0px"
	 viewBox="0 0 512 512" style="enable-background:new 0 0 512 512;" xml:space="preserve">
<path style="fill:#0072A2;" d="M267.403,347.85V50.509C267.403,22.614,244.789,0,216.894,0l0,0
	c-27.896,0-50.509,22.614-50.509,50.509v297.34c0,8.856-3.447,17.349-9.564,23.753c-13.995,14.652-22.688,34.41-22.98,56.204
	c-0.606,45.275,35.787,83.106,81.053,84.17c46.787,1.1,85.061-36.499,85.061-83.037c0-22.27-8.772-42.483-23.042-57.394
	C270.808,365.166,267.403,356.679,267.403,347.85z"/>
<path style="fill:#006289;" d="M297.484,408.763c-0.645-2.583-1.412-5.119-2.293-7.6c-0.441-1.24-0.91-2.467-1.407-3.68
	c-0.994-2.425-2.1-4.793-3.311-7.097c-0.605-1.152-1.237-2.288-1.894-3.407c-1.972-3.358-4.172-6.565-6.58-9.6
	c-1.606-2.023-3.303-3.97-5.087-5.834c-1.526-1.595-2.883-3.321-4.061-5.152s-2.175-3.765-2.983-5.777
	c-0.404-1.006-0.759-2.031-1.066-3.071c-0.92-3.122-1.399-6.384-1.399-9.695V50.509c0-6.63-1.29-12.955-3.613-18.756
	c-0.215-0.538-0.438-1.072-0.672-1.601c-0.446-1.012-0.925-2.005-1.434-2.981c-0.266-0.509-0.54-1.012-0.822-1.51
	c-3.061-5.406-7.079-10.198-11.84-14.128c-0.624-0.515-1.26-1.015-1.908-1.5c-1.296-0.97-2.641-1.878-4.03-2.722
	c-1.388-0.844-2.821-1.622-4.293-2.331C232.167,1.789,224.739,0,216.894,0c-1.496,0-2.97,0.088-4.432,0.216
	c-0.024-0.002-0.048-0.003-0.072-0.005c-4.395,0.389-8.629,1.333-12.628,2.775c19.465,7.015,33.385,25.641,33.385,47.524v297.34
	c0,8.829,3.405,17.316,9.509,23.695c14.27,14.912,23.042,35.125,23.042,57.394c0,39.997-28.284,73.355-65.935,81.252
	c4.902,1.039,9.954,1.664,15.13,1.785c13.159,0.309,25.644-2.443,36.794-7.593c3.717-1.717,7.285-3.701,10.68-5.926
	c1.132-0.742,2.244-1.511,3.337-2.305c2.185-1.589,4.289-3.283,6.306-5.073c3.025-2.685,5.853-5.588,8.458-8.683
	c2.606-3.096,4.989-6.384,7.126-9.841c0.713-1.152,1.397-2.323,2.054-3.512c1.97-3.567,3.685-7.294,5.122-11.156
	c1.915-5.15,3.334-10.542,4.198-16.117c0.432-2.788,0.726-5.621,0.873-8.493c0.074-1.436,0.111-2.882,0.111-4.336
	C299.954,421.98,299.098,415.221,297.484,408.763z"/>
<path style="fill:#FF4D4A;" d="M216.893,487.995c-0.478,0-0.956-0.005-1.436-0.017c-32.2-0.757-58.047-27.607-57.615-59.852
	c0.2-14.939,6.001-29.125,16.336-39.945c10.453-10.944,16.21-25.268,16.21-40.333V114.521c0-14.638,11.867-26.505,26.505-26.505l0,0
	c14.638,0,26.505,11.867,26.505,26.505V347.85c0,15.087,5.743,29.396,16.173,40.293c10.562,11.037,16.379,25.526,16.379,40.797
	c0,15.775-6.143,30.605-17.297,41.759C247.5,481.852,232.668,487.995,216.893,487.995
	C216.892,487.995,216.894,487.995,216.893,487.995z"/>
<g>
	<path style="fill:#E13F33;" d="M273.747,412.956c-0.148-0.529-0.305-1.055-0.468-1.579c-1.197-3.849-2.789-7.561-4.753-11.089
		c-0.798-1.434-1.659-2.836-2.58-4.204c-1.882-2.799-4.002-5.461-6.375-7.942c-3.911-4.086-7.163-8.652-9.701-13.559
		c-0.423-0.818-0.826-1.645-1.209-2.481c-3.446-7.525-5.263-15.766-5.263-24.252V114.521c0-4.117-0.939-8.015-2.614-11.491
		c-0.186-0.386-0.381-0.767-0.585-1.143c-0.408-0.751-0.851-1.48-1.328-2.185c-0.476-0.705-0.986-1.386-1.526-2.04
		c-0.81-0.982-1.69-1.904-2.631-2.76c-0.628-0.57-1.283-1.111-1.963-1.62s-1.386-0.986-2.115-1.428
		c-0.729-0.443-1.48-0.851-2.253-1.223c-0.772-0.372-1.566-0.708-2.378-1.005c-1.218-0.446-2.478-0.805-3.772-1.07
		c-1.725-0.353-3.512-0.538-5.342-0.538c-0.721,0-1.434,0.034-2.139,0.094c-0.022,0.002-0.044,0.003-0.066,0.005
		c-0.709,0.062-1.411,0.151-2.104,0.265c-0.01-0.002-0.02-0.002-0.03-0.004c-4.847,0.798-9.249,2.911-12.831,5.961
		c5.71,4.861,9.334,12.097,9.334,20.184V347.85c0,15.087,5.743,29.397,16.173,40.293c10.561,11.037,16.379,25.526,16.379,40.797
		c0,15.775-6.143,30.605-17.297,41.759c-6.968,6.968-15.376,11.963-24.549,14.74c4.061,1.239,8.299,2.064,12.676,2.392
		c0.007-0.001,0.015-0.001,0.022-0.001c0.973,0.073,1.953,0.123,2.939,0.147c0.019,0,0.037,0.002,0.055,0.003
		c0.48,0.011,0.958,0.017,1.436,0.017c4.929,0,9.767-0.6,14.429-1.765c0.932-0.233,1.858-0.489,2.775-0.767
		c1.835-0.556,3.64-1.201,5.408-1.934c1.769-0.732,3.501-1.552,5.192-2.457c4.227-2.261,8.196-5.054,11.822-8.342
		c0.725-0.658,1.437-1.335,2.134-2.032s1.375-1.409,2.032-2.134c9.866-10.878,15.265-24.837,15.265-39.625
		C275.95,423.469,275.191,418.103,273.747,412.956z"/>
	<path style="fill:#E13F33;" d="M367.436,53.882h-56.75c-5.927,0-10.731-4.805-10.731-10.731l0,0
		c0-5.927,4.805-10.731,10.731-10.731h56.75c5.927,0,10.731,4.805,10.731,10.731l0,0C378.167,49.077,373.363,53.882,367.436,53.882z
		"/>
	<path style="fill:#E13F33;" d="M367.436,182.081h-56.75c-5.927,0-10.731-4.805-10.731-10.731l0,0
		c0-5.927,4.805-10.731,10.731-10.731h56.75c5.927,0,10.731,4.805,10.731,10.731l0,0
		C378.167,177.277,373.363,182.081,367.436,182.081z"/>
	<path style="fill:#E13F33;" d="M367.436,310.281h-56.75c-5.927,0-10.731-4.805-10.731-10.731l0,0
		c0-5.927,4.805-10.731,10.731-10.731h56.75c5.927,0,10.731,4.805,10.731,10.731l0,0
		C378.167,305.476,373.363,310.281,367.436,310.281z"/>
	<path style="fill:#E13F33;" d="M343.814,117.981h-33.128c-5.927,0-10.731-4.805-10.731-10.731l0,0
		c0-5.927,4.805-10.731,10.731-10.731h33.128c5.927,0,10.731,4.805,10.731,10.731l0,0
		C354.545,113.177,349.741,117.981,343.814,117.981z"/>
	<path style="fill:#E13F33;" d="M343.814,246.181h-33.128c-5.927,0-10.731-4.805-10.731-10.731l0,0
		c0-5.927,4.805-10.731,10.731-10.731h33.128c5.927,0,10.731,4.805,10.731,10.731l0,0
		C354.545,241.377,349.741,246.181,343.814,246.181z"/>
</g>
<g>
</g>
<g>
</g>
<g>
</g>
<g>
</g>
<g>
</g>
<g>
</g>
<g>
</g>
<g>
</g>
<g>
</g>
<g>
</g>
<g>
</g>
<g>
</g>
<g>
</g>
<g>
</g>
<g>
</g>
</svg>
