<svg height="512pt" viewBox="0 0 512 512" width="512pt" xmlns="http://www.w3.org/2000/svg"><path d="m512 256c0 141.386719-114.613281 256-256 256s-256-114.613281-256-256 114.613281-256 256-256 256 114.613281 256 256zm0 0" fill="#4a7aff"/><path d="m512 256c0-.570312-.019531-1.136719-.023438-1.707031l-79.800781-79.804688-206.128906-71.558593-128.871094 98.449218 96.046875 96.050782-76.714844 91.457031 122.539063 122.539062c5.605469.367188 11.253906.574219 16.953125.574219 141.386719 0 256-114.613281 256-256zm0 0" fill="#0053bf"/><path d="m395.492188 388.886719h-278.984376v-209.988281l139.492188-90 139.492188 90zm0 0" fill="#fff"/><path d="m395.492188 178.898438-139.492188-90-.191406 299.988281h139.683594zm0 0" fill="#e9edf5"/><path d="m414.824219 201.378906-158.824219-102.472656-158.824219 102.472656-17.351562-26.890625 176.175781-113.667969 176.175781 113.667969zm0 0" fill="#ffe000"/><path d="m256 98.90625 158.824219 102.472656 17.351562-26.890625-176.175781-113.667969zm0 0" fill="#ffc200"/><path d="m282.167969 315c0 14.453125-11.714844 26.167969-26.167969 26.167969s-26.167969-11.714844-26.167969-26.167969 11.714844-26.167969 26.167969-26.167969 26.167969 11.714844 26.167969 26.167969zm0 0" fill="#53edf5"/><path d="m256 288.832031c-.0625 0-.128906.003907-.191406.007813v52.320312c.066406 0 .128906.007813.191406.007813 14.449219 0 26.167969-11.714844 26.167969-26.167969 0-14.449219-11.71875-26.167969-26.167969-26.167969zm0 0" fill="#42cbea"/><path d="m356.890625 242.609375c-55.738281-55.738281-146.425781-55.738281-202.164063 0l-21.210937-21.214844c67.433594-67.429687 177.15625-67.429687 244.589844 0zm0 0" fill="#53edf5"/><path d="m318.492188 281.007812c-34.5625-34.5625-90.800782-34.5625-125.363282 0l-21.214844-21.210937c46.261719-46.261719 121.53125-46.261719 167.789063 0zm0 0" fill="#53edf5"/><g fill="#40deed"><path d="m255.929688 200.808594c36.566406.03125 73.125 13.964844 100.960937 41.800781l21.214844-21.210937c-33.683594-33.683594-77.914063-50.539063-122.15625-50.574219zm0 0"/><path d="m255.894531 255.089844c22.671875.019531 45.335938 8.660156 62.597657 25.917968l21.210937-21.210937c-23.101563-23.105469-53.441406-34.667969-83.789063-34.695313zm0 0"/></g></svg>